<?xml version="1.0" encoding="utf-8"?>
<!-- Generator: Adobe Illustrator 20.1.0, SVG Export Plug-In . SVG Version: 6.00 Build 0)  -->
<svg version="1.1" id="Layer_1" xmlns="http://www.w3.org/2000/svg" xmlns:xlink="http://www.w3.org/1999/xlink" x="0px" y="0px"
	viewBox="0 0 164 164" style="enable-background:new 0 0 164 164;" xml:space="preserve">
<style type="text/css">
	.st0{fill:#562873;}
</style>
<g id="Ellipse_1_copy_7">
	<path class="st0" d="M82,164c-45.2,0-82-36.8-82-82S36.8,0,82,0s82,36.8,82,82S127.2,164,82,164z M82,4C39,4,4,39,4,82
		c0,43,35,78,78,78c43,0,78-35,78-78C160,39,125,4,82,4z"/>
</g>
<g>
	<path class="st0" d="M80.5,28.5c-1-1-2.5-0.9-3.5,0L58.5,52.3l-4.9-7.5c-0.4-0.6-0.9-0.9-1.6-1.1c-0.6-0.1-1.3,0-1.9,0.4
		c-0.6,0.4-0.9,0.9-1.1,1.6s0,1.3,0.4,1.9L56,57.6c0.4,0.6,1.1,1,1.8,1.1c0.1,0,0.2,0,0.2,0c0.7,0,1.3-0.3,1.8-0.7l20.7-26
		c0.5-0.5,0.7-1.1,0.7-1.8C81.2,29.5,81,28.9,80.5,28.5z"/>
	<g>
		<path class="st0" d="M107,37"/>
		<path class="st0" d="M107,39H87c-1.1,0-2-0.9-2-2s0.9-2,2-2h20c1.1,0,2,0.9,2,2S108.1,39,107,39z"/>
	</g>
	<g>
		<path class="st0" d="M107,49H80c-1.1,0-2-0.9-2-2s0.9-2,2-2h27c1.1,0,2,0.9,2,2S108.1,49,107,49z"/>
	</g>
	<g>
		<path class="st0" d="M71,57"/>
		<path class="st0" d="M107,59H71c-1.1,0-2-0.9-2-2s0.9-2,2-2h36c1.1,0,2,0.9,2,2S108.1,59,107,59z"/>
	</g>
</g>
<g>
	<path class="st0" d="M80.5,65.5c-1-1-2.5-0.9-3.5,0L58.5,89.3l-4.9-7.5c-0.4-0.6-0.9-0.9-1.6-1.1c-0.6-0.1-1.3,0-1.9,0.4
		c-0.6,0.4-0.9,0.9-1.1,1.6s0,1.3,0.4,1.9L56,94.6c0.4,0.6,1.1,1,1.8,1.1c0.1,0,0.2,0,0.2,0c0.7,0,1.3-0.3,1.8-0.7l20.7-26
		c0.5-0.5,0.7-1.1,0.7-1.8C81.2,66.5,81,65.9,80.5,65.5z"/>
	<g>
		<path class="st0" d="M107,74"/>
		<path class="st0" d="M107,76H87c-1.1,0-2-0.9-2-2s0.9-2,2-2h20c1.1,0,2,0.9,2,2S108.1,76,107,76z"/>
	</g>
	<g>
		<path class="st0" d="M107,86H80c-1.1,0-2-0.9-2-2s0.9-2,2-2h27c1.1,0,2,0.9,2,2S108.1,86,107,86z"/>
	</g>
	<g>
		<path class="st0" d="M71,94"/>
		<path class="st0" d="M107,96H71c-1.1,0-2-0.9-2-2s0.9-2,2-2h36c1.1,0,2,0.9,2,2S108.1,96,107,96z"/>
	</g>
</g>
<g>
	<path class="st0" d="M80.5,102.5c-1-1-2.5-0.9-3.5,0l-18.5,23.8l-4.9-7.5c-0.4-0.6-0.9-0.9-1.6-1.1c-0.6-0.1-1.3,0-1.9,0.4
		c-0.6,0.4-0.9,0.9-1.1,1.6s0,1.3,0.4,1.9l6.6,10.1c0.4,0.6,1.1,1,1.8,1.1c0.1,0,0.2,0,0.2,0c0.7,0,1.3-0.3,1.8-0.7l20.7-26
		c0.5-0.5,0.7-1.1,0.7-1.8C81.2,103.5,81,102.9,80.5,102.5z"/>
	<g>
		<path class="st0" d="M107,111"/>
		<path class="st0" d="M107,113H87c-1.1,0-2-0.9-2-2s0.9-2,2-2h20c1.1,0,2,0.9,2,2S108.1,113,107,113z"/>
	</g>
	<g>
		<path class="st0" d="M107,123H80c-1.1,0-2-0.9-2-2s0.9-2,2-2h27c1.1,0,2,0.9,2,2S108.1,123,107,123z"/>
	</g>
	<g>
		<path class="st0" d="M71,131"/>
		<path class="st0" d="M107,133H71c-1.1,0-2-0.9-2-2s0.9-2,2-2h36c1.1,0,2,0.9,2,2S108.1,133,107,133z"/>
	</g>
</g>
</svg>
